<?xml version="1.0" encoding="UTF-8"?>
<svg width="256" height="256" viewBox="0 0 256 256" xmlns="http://www.w3.org/2000/svg" role="img" aria-label="Mastodon">
  <path d="M211.6 139.6c-3.2 16.3-28.7 34.1-58.1 37.6-15.3 1.8-30.4 3.5-46.6 2.8-26.4-1.2-47.3-8.1-47.3-8.1 0 3.3.2 6.5.7 9.6 5.1 38.4 37.7 40.8 68.5 41.9 31.1 1.1 58.6-7.6 58.6-7.6l1.3 28.6s-21.7 11.7-60.2 13.8c-21.2 1.2-47.6-.5-78.3-8.1C8.7 238.8 1 191 1 191c0-50.2 26.6-91.5 26.6-91.5C45.8 75.7 73.9 68 73.9 68l4.1 28.3s20.5-6.5 45.9-8.2c15.6-1 32 1.1 47.6 4.4 30.1 6.4 40.1 31 40.1 31s3.5 6.1 0 16.1z" fill="#3088D4"/>
  <path d="M173.2 99.2v62.6h-23.2v-60.5c0-12.7-5.4-19.2-16.1-19.2-11.9 0-17.8 7.7-17.8 22.9v33.1H92.9v-33.1c0-15.2-5.9-22.9-17.8-22.9-10.7 0-16.1 6.5-16.1 19.2v60.5H35.8V99.2c0-12.7 3.2-22.9 9.6-30.6 6.7-7.5 15.5-11.4 26.6-11.4 12.7 0 22.4 4.8 29.1 14.5l6.3 10 6.3-10c6.7-9.7 16.4-14.5 29.1-14.5 11.1 0 20 3.8 26.6 11.4 6.4 7.6 9.6 17.9 9.6 30.6z" fill="#fff"/>
</svg>
